<svg width="61" height="61" viewBox="0 0 61 61" fill="none" xmlns="http://www.w3.org/2000/svg">
<mask id="path-1-inside-1_259_2" fill="white">
<path d="M37.2604 1.5182C30.8906 0.0221553 24.2063 0.649654 18.2262 3.30507C12.2461 5.96048 7.29812 10.4982 4.13628 16.2267C0.974453 21.9552 -0.227839 28.5603 0.712629 35.0355C1.6531 41.5107 4.68475 47.5009 9.34559 52.0932C14.0064 56.6855 20.0409 59.6281 26.5293 60.4726C33.0177 61.3171 39.6043 60.0171 45.2854 56.7708C50.9664 53.5244 55.4303 48.5098 57.9969 42.491C60.5634 36.4723 61.0919 29.7794 59.5016 23.4325L56.5035 24.1836C57.9299 29.8767 57.4559 35.88 55.1538 41.2787C52.8517 46.6774 48.8476 51.1754 43.7519 54.0872C38.6561 56.9991 32.7481 58.1651 26.9282 57.4077C21.1082 56.6502 15.6955 54.0108 11.5149 49.8916C7.33421 45.7724 4.61489 40.3993 3.77132 34.5913C2.92774 28.7832 4.00617 22.8585 6.84225 17.7202C9.67833 12.5819 14.1165 8.51172 19.4805 6.12988C24.8445 3.74805 30.8401 3.1852 36.5537 4.52711L37.2604 1.5182Z"/>
</mask>
<path d="M37.2604 1.5182C30.8906 0.0221553 24.2063 0.649654 18.2262 3.30507C12.2461 5.96048 7.29812 10.4982 4.13628 16.2267C0.974453 21.9552 -0.227839 28.5603 0.712629 35.0355C1.6531 41.5107 4.68475 47.5009 9.34559 52.0932C14.0064 56.6855 20.0409 59.6281 26.5293 60.4726C33.0177 61.3171 39.6043 60.0171 45.2854 56.7708C50.9664 53.5244 55.4303 48.5098 57.9969 42.491C60.5634 36.4723 61.0919 29.7794 59.5016 23.4325L56.5035 24.1836C57.9299 29.8767 57.4559 35.88 55.1538 41.2787C52.8517 46.6774 48.8476 51.1754 43.7519 54.0872C38.6561 56.9991 32.7481 58.1651 26.9282 57.4077C21.1082 56.6502 15.6955 54.0108 11.5149 49.8916C7.33421 45.7724 4.61489 40.3993 3.77132 34.5913C2.92774 28.7832 4.00617 22.8585 6.84225 17.7202C9.67833 12.5819 14.1165 8.51172 19.4805 6.12988C24.8445 3.74805 30.8401 3.1852 36.5537 4.52711L37.2604 1.5182Z" stroke="white" stroke-width="6" mask="url(#path-1-inside-1_259_2)"/>
<mask id="path-2-inside-2_259_2" fill="white">
<path d="M25.8627 50.0473C30.0773 51.0372 34.5 50.622 38.4567 48.865C42.4135 47.1081 45.6873 44.1057 47.7794 40.3154C49.8714 36.5252 50.6669 32.1549 50.0446 27.8705C49.4224 23.5862 47.4165 19.6228 44.3326 16.5843C41.2488 13.5458 37.2561 11.5988 32.963 11.04C28.6699 10.4813 24.3119 11.3414 20.553 13.4894C16.7942 15.6373 13.8406 18.9553 12.1424 22.9376C10.4443 26.9199 10.0946 31.3482 11.1468 35.5477L13.7503 34.8954C12.8404 31.2638 13.1428 27.4342 14.6113 23.9904C16.0799 20.5465 18.6341 17.6772 21.8847 15.8197C25.1353 13.9622 28.904 13.2184 32.6166 13.7016C36.3292 14.1848 39.782 15.8685 42.4488 18.4962C45.1157 21.1238 46.8504 24.5513 47.3885 28.2563C47.9266 31.9613 47.2387 35.7407 45.4295 39.0184C43.6204 42.2962 40.7892 44.8926 37.3675 46.412C33.9458 47.9314 30.1211 48.2904 26.4764 47.4344L25.8627 50.0473Z"/>
</mask>
<path d="M25.8627 50.0473C30.0773 51.0372 34.5 50.622 38.4567 48.865C42.4135 47.1081 45.6873 44.1057 47.7794 40.3154C49.8714 36.5252 50.6669 32.1549 50.0446 27.8705C49.4224 23.5862 47.4165 19.6228 44.3326 16.5843C41.2488 13.5458 37.2561 11.5988 32.963 11.04C28.6699 10.4813 24.3119 11.3414 20.553 13.4894C16.7942 15.6373 13.8406 18.9553 12.1424 22.9376C10.4443 26.9199 10.0946 31.3482 11.1468 35.5477L13.7503 34.8954C12.8404 31.2638 13.1428 27.4342 14.6113 23.9904C16.0799 20.5465 18.6341 17.6772 21.8847 15.8197C25.1353 13.9622 28.904 13.2184 32.6166 13.7016C36.3292 14.1848 39.782 15.8685 42.4488 18.4962C45.1157 21.1238 46.8504 24.5513 47.3885 28.2563C47.9266 31.9613 47.2387 35.7407 45.4295 39.0184C43.6204 42.2962 40.7892 44.8926 37.3675 46.412C33.9458 47.9314 30.1211 48.2904 26.4764 47.4344L25.8627 50.0473Z" stroke="url(#paint0_linear_259_2)" stroke-width="6" mask="url(#path-2-inside-2_259_2)"/>
<circle cx="30.4011" cy="30.7235" r="8" fill="#F6FB23"/>
<defs>
<linearGradient id="paint0_linear_259_2" x1="46.2257" y1="21.0737" x2="22.649" y2="40.6605" gradientUnits="userSpaceOnUse">
<stop stop-color="#CE06D6"/>
<stop offset="1" stop-color="#CE06D6" stop-opacity="0"/>
</linearGradient>
</defs>
</svg>
